# xmcd
#
# Track frame offsets: 
#        150
#        11916
#        26577
#        43083
#        54589
#        74046
#        88321
#        101691
#        119099
#        136501
#        156215
#
# Disc length: 2254 seconds
#
# Revision: 0
# Processed by: cddbd v1.5.2PL0 Copyright (c) Steve Scherf et al.
# Submitted via: ExactAudioCopyFreeDBPlugin 1.0
#
DISCID=9e08cc0b
DTITLE=Jimmy Rankin - Moving East
DYEAR=2018
DGENRE=blues
TTITLE0=Loving You Never Gets Old
TTITLE1=No More I'll Go Roving
TTITLE2=Thin Ice
TTITLE3=The Rawleigh Man
TTITLE4=Down At The Shore
TTITLE5=Turn That Boat Around
TTITLE6=Been Away
TTITLE7=These Roads
TTITLE8=Highlander
TTITLE9=Haul Away the Whale
TTITLE10=Dirt'n Potatoes - Cap Breton Fiddle Meddley
EXTD=
EXTT0=
EXTT1=
EXTT2=
EXTT3=
EXTT4=
EXTT5=
EXTT6=
EXTT7=
EXTT8=
EXTT9=
EXTT10=
PLAYORDER=
